{"title":"IceAge3.3d.zodrakn/RED_CYAN","uid":5682744,"size":1982874432,"categoryP":"other","categoryS":"other","magnet":"?xt=urn:btih:f034f45de9ddbca649b65cd3c0c80c6f124d7018&amp;dn=IceAge3.3d.zodrakn%2FRED_CYAN&amp;tr=udp%3A%2F%2Ftracker.openbittorrent.com%3A80&amp;tr=udp%3A%2F%2Fopen.demonii.com%3A1337&amp;tr=udp%3A%2F%2Ftracker.coppersurfer.tk%3A6969&amp;tr=udp%3A%2F%2Fexodus.desync.com%3A6969","seeders":0,"leechers":0,"uploader":"nccristi","files":1,"time":1278868146,"description":"Format profile                   : OpenDML\nFile size                        : 1.84 GiB\nDuration                         : 1h 34mn\nOverall bit rate                 : 2 811 Kbps\nWriting application              : VirtualDubMod 1.5.10.2 (build 2540/release)\n\nVideo                            : Anaglyph RED/CYAN\nFormat                           : MPEG-4 Visual\nFormat settings, Matrix          : Default (H.263)\nMuxing mode                      : Packed bitstream\nCodec ID                         : XVID\nDuration                         : 1h 34mn\nBit rate                         : 2 811 Kbps\nWidth                            : 1280 pixels\nHeight                           : 768 pixels\nDisplay aspect ratio             : 16:9\nFrame rate                       : 23.970 fps\nResolution                       : 24 bits\nScan type                        : Progressive\nStream size                      : 2.41 GiB (91%)\n\nAudio English\nFormat                           : MPEG Audio\nCodec ID/Hint                    : MP3\nDuration                         : 1h 34mn\nBit rate mode                    : Constant\nBit rate                         : 192 Kbps\nChannel(s)                       : 2 channels\nSampling rate                    : 44.1 KHz\nResolution                       : 16 bits\nStream size                      : 215 MiB (8%)\nWriting library                  : LAMELAME","torrent":{"xt":"urn:btih:f034f45de9ddbca649b65cd3c0c80c6f124d7018","amp;dn":"IceAge3.3d.zodrakn%2FRED_CYAN","amp;tr":["udp%3A%2F%2Ftracker.openbittorrent.com%3A80","udp%3A%2F%2Fopen.demonii.com%3A1337","udp%3A%2F%2Ftracker.coppersurfer.tk%3A6969","udp%3A%2F%2Fexodus.desync.com%3A6969"],"infoHash":"f034f45de9ddbca649b65cd3c0c80c6f124d7018","infoHashBuffer":{"type":"Buffer","data":[240,52,244,93,233,221,188,166,73,182,92,211,192,200,12,111,18,77,112,24]},"announce":[],"urlList":[]}}